HIERARCHY
ROOT joint_Root
{
	OFFSET 0.0 0.0 0.0
	CHANNELS 6 Xposition Yposition Zposition Zrotation Xrotation Yrotation 
	JOINT Hips
	{
		OFFSET -0.726466 93.3139 -2.00062
		CHANNELS 6 Xposition Yposition Zposition Zrotation Xrotation Yrotation 
		JOINT Spine
		{
			OFFSET 15.7357 0.0 0.0
			CHANNELS 6 Xposition Yposition Zposition Zrotation Xrotation Yrotation 
			JOINT Chest
			{
				OFFSET 8.98455 -0.406207 0.0
				CHANNELS 6 Xposition Yposition Zposition Zrotation Xrotation Yrotation 
				JOINT Neck
				{
					OFFSET 16.3773 0.0 0.0
					CHANNELS 6 Xposition Yposition Zposition Zrotation Xrotation Yrotation 
					JOINT Head
					{
						OFFSET 6.45672 0.0 0.0
						CHANNELS 6 Xposition Yposition Zposition Zrotation Xrotation Yrotation 
						End Site
						{
							OFFSET 0.0 0.0 0.0
						}
					}
				}
				JOINT Shoulder_L
				{
					OFFSET 12.9942 -0.242716 4.98039
					CHANNELS 6 Xposition Yposition Zposition Zrotation Xrotation Yrotation 
					JOINT UpperArm_L
					{
						OFFSET 5.34809 0.0 0.0
						CHANNELS 6 Xposition Yposition Zposition Zrotation Xrotation Yrotation 
						JOINT LowerArm_L
						{
							OFFSET 24.3286 1.87007e-05 0.0
							CHANNELS 6 Xposition Yposition Zposition Zrotation Xrotation Yrotation 
							JOINT Hand_L
							{
								OFFSET 22.2916 0.0 0.0
								CHANNELS 6 Xposition Yposition Zposition Zrotation Xrotation Yrotation 
								End Site
								{
									OFFSET 0.0 0.0 0.0
								}
							}
						}
					}
				}
				JOINT Shoulder_R
				{
					OFFSET 12.9945 -0.242716 -4.98039
					CHANNELS 6 Xposition Yposition Zposition Zrotation Xrotation Yrotation 
					JOINT UpperArm_R
					{
						OFFSET -5.34813 0.0 0.0
						CHANNELS 6 Xposition Yposition Zposition Zrotation Xrotation Yrotation 
						JOINT LowerArm_R
						{
							OFFSET -24.3289 0.000322201 0.0
							CHANNELS 6 Xposition Yposition Zposition Zrotation Xrotation Yrotation 
							JOINT Hand_R
							{
								OFFSET -22.2915 -0.000108084 0.0
								CHANNELS 6 Xposition Yposition Zposition Zrotation Xrotation Yrotation 
								End Site
								{
									OFFSET 0.0 0.0 0.0
								}
							}
						}
					}
				}
			}
		}
		JOINT UpperLeg_L
		{
			OFFSET -2.19248 -6.46944 0.0
			CHANNELS 6 Xposition Yposition Zposition Zrotation Xrotation Yrotation 
			JOINT LowerLeg_L
			{
				OFFSET 39.0811 0.0 -1.23785e-05
				CHANNELS 6 Xposition Yposition Zposition Zrotation Xrotation Yrotation 
				JOINT Foot_L
				{
					OFFSET 40.9854 0.0 -1.26872e-05
					CHANNELS 6 Xposition Yposition Zposition Zrotation Xrotation Yrotation 
					JOINT Toes_L
					{
						OFFSET 11.7543 0.0 0.0
						CHANNELS 6 Xposition Yposition Zposition Zrotation Xrotation Yrotation 
						End Site
						{
							OFFSET 0.0 0.0 0.0
						}
					}
				}
			}
		}
		JOINT UpperLeg_R
		{
			OFFSET -2.19251 6.46944 0.0
			CHANNELS 6 Xposition Yposition Zposition Zrotation Xrotation Yrotation 
			JOINT LowerLeg_R
			{
				OFFSET -39.0811 -0.00228153 -0.0401928
				CHANNELS 6 Xposition Yposition Zposition Zrotation Xrotation Yrotation 
				JOINT Foot_R
				{
					OFFSET -40.9854 0.0 0.0
					CHANNELS 6 Xposition Yposition Zposition Zrotation Xrotation Yrotation 
					JOINT Toes_R
					{
						OFFSET -11.7543 0.0 0.0
						CHANNELS 6 Xposition Yposition Zposition Zrotation Xrotation Yrotation 
						End Site
						{
							OFFSET 0.0 0.0 0.0
						}
					}
				}
			}
		}
	}
}
MOTION
Frames:	7
Frame Time:	0.0333333
0.000000 0.000000 0.000000 0.000000 0.000000 -0.000000 149.897000 87.530400 -193.577000 86.760400 4.913540 0.208344 15.735700 0.000005 -0.000001 65.302500 79.841300 -63.802600 8.984550 -0.406207 -0.000000 10.890900 -8.387150 3.803440 16.377300 -0.000001 -0.000001 9.445380 -1.375600 -0.898772 6.456720 -0.000001 -0.000000 3.163480 4.195440 -0.994181 12.994200 -0.242716 4.980390 -88.471600 -4.515690 -71.278900 5.348090 -0.000007 -0.000001 -39.965900 21.412600 -44.184000 24.328600 0.000019 0.000005 3.476520 2.574420 -53.522000 22.291600 -0.000001 0.000005 3.997040 5.604250 -11.599600 12.994500 -0.242716 -4.980390 89.999300 0.001326 -62.794200 -5.348130 -0.000001 -0.000004 -58.940500 32.812300 3.449280 -24.328900 0.000322 -0.000009 3.365480 4.555790 -36.523700 -22.291500 -0.000108 -0.000004 0.276332 5.568590 -9.616200 -2.192480 -6.469440 -0.000000 -170.261000 -9.453310 9.103090 39.081100 -0.000007 -0.000012 -0.081202 0.174711 24.928000 40.985400 -0.000006 -0.000013 -0.250361 5.304130 -80.148600 11.754300 -0.000000 0.000003 -1.476070 -1.839620 -19.041600 -2.192510 6.469440 -0.000001 -171.817000 29.962000 144.715000 -39.081100 -0.002282 -0.040193 0.008590 -0.013247 21.700600 -40.985400 0.000008 0.000006 -9.207080 -0.422237 -56.154300 -11.754300 -0.000006 -0.000006 -0.023479 -0.185849 -24.173400
0.000000 0.000000 0.000000 0.000000 0.000000 -0.000000 148.624000 86.701400 -189.481000 86.121400 6.473700 -0.965583 15.735700 0.000005 -0.000001 63.197500 80.255300 -61.116600 8.984550 -0.406207 -0.000000 9.876190 -8.696900 4.917940 16.377300 -0.000001 -0.000001 9.517130 -1.944970 -0.842961 6.456720 -0.000001 -0.000000 3.029820 3.849600 -1.012730 12.994200 -0.242716 4.980390 -88.611000 -4.194750 -71.660300 5.348090 -0.000007 -0.000001 -40.952300 22.648700 -42.542700 24.328600 0.000019 0.000005 3.824680 2.785450 -53.985800 22.291600 -0.000001 0.000005 4.007890 5.605770 -11.693400 12.994500 -0.242716 -4.980390 89.767400 0.446746 -62.495500 -5.348130 -0.000001 -0.000004 -58.689900 32.141400 3.413300 -24.328900 0.000322 -0.000009 3.519770 4.926620 -35.619600 -22.291500 -0.000108 -0.000004 0.320777 5.568450 -9.609240 -2.192480 -6.469440 -0.000000 -167.748000 -8.452320 9.563550 39.081100 -0.000007 -0.000012 -0.086628 0.176394 26.156100 40.985400 -0.000006 -0.000013 -1.609320 7.094250 -79.906400 11.754300 -0.000000 0.000003 -0.114675 -0.184701 -19.162200 -2.192510 6.469440 -0.000001 -169.634000 28.538200 140.676000 -39.081100 -0.002282 -0.040193 0.031289 -0.050199 29.139000 -40.985400 0.000008 0.000006 3.513010 1.092210 -52.971900 -11.754300 -0.000006 -0.000006 -0.028277 -0.209455 -25.149900
0.000000 0.000000 0.000000 0.000000 0.000000 -0.000000 147.250000 86.014900 -184.780000 84.951400 7.863050 -1.152330 15.735700 0.000005 -0.000001 62.327300 80.425500 -59.502200 8.984550 -0.406207 -0.000000 9.500580 -8.800720 6.387230 16.377300 -0.000001 -0.000001 9.233870 -2.233240 -0.919477 6.456720 -0.000001 -0.000000 2.805700 3.505630 -1.239530 12.994200 -0.242716 4.980390 -88.778000 -3.696070 -71.690100 5.348090 -0.000007 -0.000001 -41.899400 25.010700 -40.076600 24.328600 0.000019 0.000005 4.562920 3.256160 -54.559500 22.291600 -0.000001 0.000005 4.036080 5.604650 -11.624100 12.994500 -0.242716 -4.980390 89.569700 0.823011 -62.398800 -5.348130 -0.000001 -0.000004 -58.683000 31.402600 2.838790 -24.328900 0.000322 -0.000009 3.518460 5.147910 -34.429400 -22.291500 -0.000108 -0.000004 0.470779 5.566260 -9.498070 -2.192480 -6.469440 -0.000000 -164.568000 -6.711130 10.403400 39.081100 -0.000007 -0.000012 -0.085388 0.157467 28.469300 40.985400 -0.000006 -0.000013 -3.525720 8.686580 -77.528300 11.754300 -0.000000 0.000003 -0.026232 -0.199655 -24.747900 -2.192510 6.469440 -0.000001 -171.174000 23.227900 139.855000 -39.081100 -0.002282 -0.040193 0.064738 -0.082761 36.594600 -40.985400 0.000008 0.000006 3.735020 -4.990250 -51.164900 -11.754300 -0.000006 -0.000006 -0.019331 -0.163555 -23.254100
0.000000 0.000000 0.000000 0.000000 0.000000 -0.000000 146.000000 85.552400 -179.737000 83.929800 8.050630 0.349833 15.735700 0.000005 -0.000001 63.867600 80.100500 -60.513700 8.984550 -0.406207 -0.000000 10.357300 -8.587930 7.493440 16.377300 -0.000001 -0.000001 9.036370 -1.979200 -0.988442 6.456720 -0.000001 -0.000000 2.477940 3.249320 -1.708420 12.994200 -0.242716 4.980390 -88.830400 -3.455450 -71.287000 5.348090 -0.000007 -0.000001 -43.933700 27.740300 -36.438500 24.328600 0.000019 0.000005 5.511960 3.933980 -54.588700 22.291600 -0.000001 0.000005 3.898910 5.604130 -11.592400 12.994500 -0.242716 -4.980390 89.507700 0.966743 -63.010400 -5.348130 -0.000001 -0.000004 -58.659700 31.697400 0.853395 -24.328900 0.000322 -0.000009 3.498430 5.412000 -32.959100 -22.291500 -0.000108 -0.000004 0.353159 5.565640 -9.466870 -2.192480 -6.469440 -0.000000 -162.361000 -4.286190 11.369800 39.081100 -0.000007 -0.000012 -0.053629 0.080999 33.509300 40.985400 -0.000006 -0.000013 -5.090760 7.896680 -72.157100 11.754300 -0.000000 0.000003 -0.089483 -0.417690 -33.961600 -2.192510 6.469440 -0.000001 -171.470000 20.217800 141.273000 -39.081100 -0.002282 -0.040193 0.111674 -0.113115 43.782200 -40.985400 0.000008 0.000006 6.538130 -7.553880 -55.101800 -11.754300 -0.000006 -0.000006 -0.009009 -0.096079 -20.486600
0.000000 0.000000 0.000000 0.000000 0.000000 -0.000000 144.847000 85.534200 -174.795000 84.044800 8.483050 2.026020 15.735700 0.000005 -0.000001 65.231800 79.784600 -61.834600 8.984550 -0.406207 -0.000000 11.133600 -8.396320 7.620830 16.377300 -0.000001 -0.000001 9.376810 -2.238000 -0.718889 6.456720 -0.000001 -0.000000 2.665300 2.686310 -2.029150 12.994200 -0.242716 4.980390 -88.813300 -3.506700 -71.290600 5.348090 -0.000007 -0.000001 -46.305700 30.979600 -32.841700 24.328600 0.000019 0.000005 5.968940 4.574260 -52.665200 22.291600 -0.000001 0.000005 3.393570 5.605880 -11.699400 12.994500 -0.242716 -4.980390 89.289700 1.410320 -63.264200 -5.348130 -0.000001 -0.000004 -57.874100 33.364600 -2.244220 -24.328900 0.000322 -0.000009 3.902180 6.224710 -32.181000 -22.291500 -0.000108 -0.000004 0.147000 5.564310 -9.400490 -2.192480 -6.469440 -0.000000 -162.053000 -1.827140 9.902380 39.081100 -0.000007 -0.000012 0.040978 -0.046284 41.518700 40.985400 -0.000006 -0.000013 -4.366310 5.251410 -63.562100 11.754300 -0.000000 0.000003 -0.121954 -0.496066 -37.401600 -2.192510 6.469440 -0.000001 -172.113000 20.851200 144.635000 -39.081100 -0.002282 -0.040193 0.137108 -0.120421 48.023900 -40.985400 0.000008 0.000006 6.376390 -8.019750 -60.747900 -11.754300 -0.000006 -0.000006 -0.005930 -0.070198 -19.430000
0.000000 0.000000 0.000000 0.000000 0.000000 -0.000000 143.910000 85.927600 -170.391000 84.848500 8.506630 3.131010 15.735700 0.000005 -0.000001 67.462900 79.787600 -64.315100 8.984550 -0.406207 -0.000000 11.394300 -7.668150 7.066920 16.377300 -0.000001 -0.000001 9.620340 -2.827990 -0.434288 6.456720 -0.000001 -0.000000 3.200960 1.598960 -1.929350 12.994200 -0.242716 4.980390 -88.694500 -3.852100 -71.261700 5.348090 -0.000007 -0.000001 -49.347700 34.165300 -29.522700 24.328600 0.000019 0.000005 7.606950 6.539200 -49.545900 22.291600 -0.000001 0.000005 1.821060 5.607750 -11.817100 12.994500 -0.242716 -4.980390 89.163500 1.668440 -63.367800 -5.348130 -0.000001 -0.000004 -56.970300 34.649000 -5.583460 -24.328900 0.000322 -0.000009 4.038200 6.329220 -32.641900 -22.291500 -0.000108 -0.000004 0.520996 5.562950 -9.332540 -2.192480 -6.469440 -0.000000 -163.490000 0.495030 5.762990 39.081100 -0.000007 -0.000012 0.146459 -0.117111 51.352800 40.985400 -0.000006 -0.000013 -2.860170 0.615148 -53.810200 11.754300 -0.000000 0.000003 -0.030388 -0.219247 -25.559900 -2.192510 6.469440 -0.000001 -173.365000 21.399500 148.683000 -39.081100 -0.002282 -0.040193 0.141850 -0.118197 49.543000 -40.985400 0.000008 0.000006 6.031850 -8.037240 -64.925900 -11.754300 -0.000006 -0.000006 -0.004732 -0.058845 -18.967200
0.000000 0.000000 0.000000 0.000000 0.000000 -0.000000 143.339000 86.709400 -166.572000 85.264500 7.541630 3.451610 15.735700 0.000005 -0.000001 71.128400 80.068400 -68.159200 8.984550 -0.406207 -0.000000 11.250300 -6.285450 6.560500 16.377300 -0.000001 -0.000001 9.599290 -3.168400 -0.153768 6.456720 -0.000001 -0.000000 3.410840 0.274862 -1.902790 12.994200 -0.242716 4.980390 -88.649700 -3.911100 -70.935100 5.348090 -0.000007 -0.000001 -52.787100 36.460500 -25.419200 24.328600 0.000019 0.000005 9.633780 9.093520 -47.044300 22.291600 -0.000001 0.000005 0.833028 5.603690 -11.565100 12.994500 -0.242716 -4.980390 89.201300 1.635720 -63.970500 -5.348130 -0.000001 -0.000004 -56.179500 34.979300 -9.256370 -24.328900 0.000322 -0.000009 3.433220 5.201650 -33.502300 -22.291500 -0.000108 -0.000004 1.198450 5.561600 -9.265710 -2.192480 -6.469440 -0.000000 -164.901000 0.125216 0.598864 39.081100 -0.000007 -0.000012 0.190256 -0.109961 59.972800 40.985400 -0.000006 -0.000013 1.636240 -3.182660 -48.473800 11.754300 -0.000000 0.000003 -0.006453 -0.074909 -19.625900 -2.192510 6.469440 -0.000001 -174.164000 20.313800 152.794000 -39.081100 -0.002282 -0.040193 0.123136 -0.105935 48.534400 -40.985400 0.000008 0.000006 5.503630 -8.270670 -67.230200 -11.754300 -0.000006 -0.000006 -0.004157 -0.053063 -18.731700
